<?xml version="1.0" encoding="UTF-8"?>
<svg id="Layer_2" data-name="Layer 2" xmlns="http://www.w3.org/2000/svg" viewBox="0 0 577.48 82.36">
  <defs>
    <style>
      .cls-1 {
        opacity: .7;
      }

      .cls-2 {
        fill: none;
        stroke: #2b6f36;
        stroke-dasharray: 0 0 10 7;
        stroke-linecap: round;
        stroke-miterlimit: 10;
      }

      .cls-3 {
        fill: #b8d551;
      }

      .cls-3, .cls-4, .cls-5, .cls-6 {
        stroke-width: 0px;
      }

      .cls-4 {
        fill: #fbf9df;
      }

      .cls-5 {
        fill: #fcf9ba;
      }

      .cls-6 {
        fill: #2b6f36;
      }
    </style>
  </defs>
  <g id="Layer_1-2" data-name="Layer 1">
    <path class="cls-6" d="M189.31,15.56l-.08-1.92c-.49-11.66.19-12.37.79-12.99l.59-.62.93-.04c.17,0,.35.02.51.06h336.75c7.44,0,13.5,6.06,13.5,13.5v2H189.31Z"/>
    <path class="cls-5" d="M191.65,2.06h337.16c6.35,0,11.5,5.15,11.5,11.5h0s-349.08,0-349.08,0c0,0-.53-12.56.42-11.5Z"/>
    <g class="cls-1">
      <rect class="cls-6" y="10.38" width="577.48" height="71.98" rx="13.31" ry="13.31"/>
    </g>
    <path class="cls-6" d="M13.31,6.27h550.86c7.34,0,13.31,5.96,13.31,13.31v45.37c0,7.34-5.96,13.31-13.31,13.31H13.31c-7.34,0-13.31-5.96-13.31-13.31V19.58C0,12.23,5.96,6.27,13.31,6.27Z"/>
    <path class="cls-3" d="M13.31,8.27h550.86c6.24,0,11.31,5.07,11.31,11.31v45.37c0,6.24-5.07,11.31-11.31,11.31H13.31c-6.24,0-11.31-5.07-11.31-11.31V19.58c0-6.24,5.07-11.31,11.31-11.31Z"/>
    <path class="cls-6" d="M13.31,14.27h550.86c2.93,0,5.31,2.38,5.31,5.31v45.37c0,2.93-2.38,5.31-5.31,5.31H13.31c-2.93,0-5.31-2.38-5.31-5.31V19.58c0-2.93,2.38-5.31,5.31-5.31Z"/>
    <rect class="cls-4" x="10" y="16.27" width="557.48" height="51.98" rx="3.31" ry="3.31"/>
    <rect class="cls-2" x="13" y="19.27" width="551.48" height="45.98" rx="1" ry="1"/>
  </g>
</svg>