<?xml version="1.0" encoding="UTF-8"?>
<svg id="Layer_2" data-name="Layer 2" xmlns="http://www.w3.org/2000/svg" viewBox="0 0 33.76 36">
  <defs>
    <style>
      .cls-1 {
        opacity: .5;
      }

      .cls-2 {
        fill: #f9fda9;
      }

      .cls-2, .cls-3 {
        stroke-width: 0px;
      }

      .cls-3 {
        fill: #2b6f36;
      }
    </style>
  </defs>
  <g id="Layer_1-2" data-name="Layer 1">
    <g class="cls-1">
      <path class="cls-3" d="M15.04,36c-1.05,0-2.07-.26-2.97-.74-.21-.09-.42-.2-.62-.33l-.2-.13c-.23-.15-.59-.39-.95-.74-.34-.33-.64-.7-.9-1.09-.88-.02-1.71-.21-2.46-.56l-.13-.06c-.21-.1-.55-.25-.91-.5l-.12-.08c-.25-.17-.64-.42-1.03-.82-1.86-1.92-2.42-4.7-1.45-7.12.06-.22.15-.43.27-.63l.08-.15c-.32-.18-.73-.42-1.11-.74C.23,20.35-.45,16.91.98,14.28c.09-.22.2-.42.33-.61l.13-.19c.15-.23.39-.59.75-.95.33-.34.7-.64,1.08-.89.02-.88.21-1.72.57-2.46l.06-.12c.1-.22.26-.56.5-.92l.08-.12c.17-.25.42-.64.82-1.03,1.26-1.22,2.97-1.91,4.7-1.91.82,0,1.65.16,2.41.47.22.06.44.16.64.27l.15.08.08-.15c.11-.21.25-.4.4-.57,1.23-1.68,3.23-2.68,5.36-2.68.48,0,.96.05,1.44.15.55.12.97.31,1.25.44l.15.07c.39.17.7.38.91.51l.11.07c.69.44,1.29,1.05,1.77,1.78.47.01.94.07,1.4.18.49.12.88.3,1.13.41l.17.08c.21.09.43.21.65.36,2.6,1.49,3.85,4.77,2.91,7.66-.15.47-.37.88-.55,1.2l.15.08c.19.11.38.23.54.38,2.12,1.52,3.12,4.19,2.55,6.82-.12.55-.31.97-.44,1.26l-.07.15c-.17.39-.38.7-.51.91l-.07.1c-.44.69-1.05,1.29-1.78,1.77-.01.47-.07.94-.18,1.4-.12.5-.3.88-.42,1.14l-.07.16c-.09.22-.22.44-.36.65-1.12,1.96-3.34,3.22-5.68,3.22-.68,0-1.35-.1-1.98-.31-.47-.15-.88-.37-1.2-.55-.18.32-.42.73-.74,1.11-1.22,1.45-3.11,2.32-5.05,2.32Z"/>
    </g>
    <path class="cls-3" d="M15.04,34.34c-1.05,0-2.07-.26-2.97-.74-.21-.09-.42-.2-.62-.33l-.2-.13c-.23-.15-.59-.39-.95-.74-.34-.33-.64-.7-.9-1.09-.88-.02-1.71-.21-2.46-.56l-.13-.06c-.21-.1-.55-.25-.91-.5l-.12-.08c-.25-.17-.64-.42-1.03-.82-1.86-1.92-2.42-4.7-1.45-7.12.06-.22.15-.43.27-.63l.08-.15c-.32-.18-.73-.42-1.11-.74C.23,18.69-.45,15.25.98,12.62c.09-.22.2-.42.33-.61l.13-.19c.15-.23.39-.59.75-.95.33-.34.7-.64,1.08-.89.02-.88.21-1.72.57-2.46l.06-.12c.1-.22.26-.56.5-.92l.08-.12c.17-.25.42-.64.82-1.03,1.26-1.22,2.97-1.91,4.7-1.91.82,0,1.65.16,2.41.47.22.06.44.16.64.27l.15.08.08-.15c.11-.21.25-.4.4-.57,1.23-1.68,3.23-2.68,5.36-2.68.48,0,.96.05,1.44.15.55.12.97.31,1.25.44l.15.07c.39.17.7.38.91.51l.11.07c.69.44,1.29,1.05,1.77,1.78.47.01.94.07,1.4.18.49.12.88.3,1.13.41l.17.08c.21.09.43.21.65.36,2.6,1.49,3.85,4.77,2.91,7.66-.15.47-.37.88-.55,1.2l.15.08c.19.11.38.23.54.38,2.12,1.52,3.12,4.19,2.55,6.82-.12.55-.31.97-.44,1.26l-.07.15c-.17.39-.38.7-.51.91l-.07.1c-.44.69-1.05,1.29-1.78,1.77-.01.47-.07.94-.18,1.4-.12.5-.3.88-.42,1.14l-.07.16c-.09.21-.21.43-.36.65-1.12,1.96-3.34,3.22-5.68,3.22-.68,0-1.35-.1-1.98-.31-.47-.15-.88-.37-1.2-.55-.18.32-.42.73-.74,1.11-1.22,1.45-3.11,2.32-5.05,2.32Z"/>
    <path class="cls-3" d="M14.81,33.52c-1.05,0-2.07-.26-2.97-.74-.21-.09-.42-.2-.62-.33l-.2-.13c-.23-.15-.59-.39-.95-.75-.34-.33-.64-.7-.89-1.09-.88-.02-1.71-.21-2.46-.56l-.12-.06c-.22-.1-.56-.26-.91-.5l-.12-.08c-.26-.17-.65-.42-1.03-.83-1.86-1.92-2.42-4.7-1.45-7.11.06-.22.15-.43.27-.63l.08-.15c-.32-.18-.73-.42-1.11-.74C0,17.87-.68,14.43.74,11.8c.09-.22.2-.42.33-.62l.13-.19c.15-.23.39-.59.75-.95.33-.34.69-.64,1.08-.89.02-.88.21-1.72.57-2.46l.06-.12c.1-.22.25-.56.5-.92l.08-.12c.17-.25.42-.65.83-1.04,1.26-1.22,2.97-1.91,4.7-1.91.82,0,1.65.16,2.41.47.22.06.43.15.64.27l.15.08.08-.15c.11-.21.25-.4.4-.57,1.23-1.68,3.23-2.68,5.36-2.68.48,0,.96.05,1.44.15.54.11.97.31,1.25.44l.15.07c.39.17.7.38.91.52l.1.07c.69.44,1.29,1.05,1.77,1.78.47.01.94.07,1.4.18.49.12.88.3,1.13.41l.17.08c.21.09.44.22.65.36,2.6,1.49,3.85,4.77,2.91,7.66-.15.47-.37.88-.55,1.2l.15.08c.2.11.39.24.57.4,2.1,1.53,3.09,4.19,2.53,6.8-.12.55-.31.97-.44,1.26l-.07.15c-.17.39-.38.7-.51.91l-.07.1c-.44.69-1.05,1.29-1.78,1.77-.01.47-.07.94-.19,1.4-.12.5-.3.88-.42,1.14l-.07.16c-.09.21-.22.44-.36.65-1.12,1.96-3.34,3.22-5.68,3.22-.68,0-1.35-.1-1.98-.31-.47-.15-.88-.37-1.2-.55-.18.32-.42.73-.74,1.11-1.22,1.45-3.11,2.32-5.05,2.32Z"/>
    <path class="cls-2" d="M12.88,29.95c-.24-.17-.49-.31-.7-.51-.62-.61-.99-1.39-1.09-2.33,0,0,0-.01,0-.01-.01-.02-.04-.03-.06-.02-.89.45-2.09.58-3.02.14-.21-.1-.43-.19-.62-.32-.25-.17-.5-.31-.71-.53-1.08-1.11-1.41-2.82-.67-4.22,0,0,0,0,0,0,0,0,0,0,0,0s0,0,0,0c0,.02-.02.03-.03.03l.31-.55s0,.04-.02.06c0,0,0,0,0,0,0,0,0,0,0,0h0c.61-.97,1.46-1.66,2.54-2.08.55-.21,1.05-.37,1.52-.48.83-.19,1.66-.38,2.5-.57.83-.18,1.64-.43,2.43-.74.41-.16.74-.48.92-.87h-.02c-.38-.28-.84-.38-1.3-.3-.59.1-1.18.24-1.76.42-.84.26-1.71.55-2.63.88-1.65.59-3.62,1.09-5.26.16-.32-.18-.68-.36-.93-.58-1.22-1.02-1.65-2.95-.84-4.37.03-.06.06-.11.08-.17.02-.05.05-.1.08-.15.17-.24.31-.49.51-.7.61-.62,1.39-.99,2.33-1.09,0,0,.01,0,.01,0,.02-.01.03-.04.02-.06-.45-.89-.58-2.09-.14-3.02.1-.21.19-.43.32-.62.17-.25.31-.5.53-.71,1.11-1.08,2.82-1.41,4.22-.67,0,0,0,0,0,0,0,0,0,0,0,0s0,0,0,0c-.02,0-.03-.02-.03-.03l.55.31s-.04,0-.06-.02c0,0,0,0,0,0,0,0,0,0,0,0h0c.97.61,1.66,1.46,2.08,2.54.21.55.37,1.05.48,1.52.19.83.38,1.66.57,2.5.18.83.43,1.64.74,2.43.17.42.5.76.92.94.26-.38.36-.84.28-1.29-.15-.84-.37-1.65-.65-2.45-.28-.81-.56-1.61-.84-2.42-.16-.46-.29-.97-.4-1.55-.22-1.14-.08-2.22.42-3.25h0s0-.01,0,0c0,.02-.02.04-.04.05l.3-.56s0,.03,0,.05c0,0,0,0,0,0,0,0,0,0,0,0,0,0,0,0,0,0,.8-1.36,2.42-1.98,3.93-1.66.3.06.55.2.82.32.21.09.4.23.6.36.87.55,1.39,1.64,1.48,2.64,0,.02.02.04.05.04,0,0,.01,0,.02,0,.85-.41,1.7-.51,2.55-.31.28.07.54.21.8.32.05.02.1.05.14.09.05.04.1.07.16.1,1.44.78,2.09,2.64,1.6,4.16-.1.32-.31.67-.49.99-.9,1.66-2.83,2.28-4.55,2.65-.95.21-1.85.42-2.7.65-.58.15-1.16.35-1.71.58-.43.17-.77.51-.95.93v.02c.36.24.8.33,1.24.25.84-.15,1.65-.37,2.45-.65.81-.28,1.61-.56,2.42-.84.46-.16.97-.29,1.55-.4,1.14-.22,2.22-.08,3.25.42h0s.01,0,0,0c-.02,0-.04-.02-.05-.04l.56.3s-.03,0-.05,0c0,0,0,0,0,0,0,0,0,0,0,0,0,0,0,0,0,0,1.36.8,1.98,2.42,1.66,3.93-.06.3-.2.55-.32.82-.09.21-.23.4-.36.6-.55.87-1.64,1.39-2.64,1.48-.02,0-.04.02-.04.05,0,0,0,.01,0,.02.41.85.51,1.7.31,2.55-.07.28-.21.54-.32.8-.02.05-.05.1-.09.14-.04.05-.07.1-.1.16-.78,1.44-2.64,2.09-4.16,1.6-.32-.1-.67-.31-.99-.49-1.66-.9-2.28-2.83-2.65-4.55-.21-.95-.42-1.85-.65-2.7-.15-.58-.35-1.16-.58-1.71-.17-.42-.49-.75-.9-.94-.25.37-.35.83-.27,1.27.1.59.24,1.18.42,1.76.26.84.55,1.71.88,2.63.59,1.65,1.09,3.62.16,5.26-.18.32-.36.68-.58.93-1.02,1.22-2.95,1.65-4.37.84-.06-.03-.11-.06-.17-.08-.05-.02-.1-.05-.15-.08Z"/>
  </g>
</svg>