<?xml version="1.0" encoding="UTF-8"?>
<svg id="Layer_2" data-name="Layer 2" xmlns="http://www.w3.org/2000/svg" viewBox="0 0 38.64 41.28">
  <defs>
    <style>
      .cls-1 {
        opacity: .5;
      }

      .cls-2 {
        fill: #f9fda9;
      }

      .cls-2, .cls-3, .cls-4 {
        stroke-width: 0px;
      }

      .cls-5 {
        opacity: .3;
      }

      .cls-3 {
        fill: #2b6f36;
      }

      .cls-4 {
        fill: #97c933;
      }
    </style>
  </defs>
  <g id="Layer_1-2" data-name="Layer 1">
    <g class="cls-1">
      <path class="cls-3" d="M21.49,41.28c-2.13,0-4.21-.95-5.54-2.55-.39-.46-.66-.95-.88-1.34,0,0-.16-.29-.18-.33-.04.02-.32.18-.32.18-.4.22-.89.5-1.47.68-.68.22-1.41.34-2.16.34-2.58,0-5.02-1.39-6.24-3.55-.16-.23-.29-.46-.4-.7l-.08-.18c-.14-.29-.32-.7-.45-1.23-.15-.6-.21-1.21-.2-1.82-.91-.54-1.66-1.25-2.19-2.09l-.08-.12c-.16-.24-.38-.57-.56-1l-.08-.18c-.14-.3-.36-.77-.48-1.37-.62-2.87.48-5.79,2.8-7.47.18-.16.37-.3.58-.41l.64-.35s-.18-.32-.18-.32c-.22-.4-.5-.89-.69-1.48-1.02-3.12.39-6.8,3.21-8.39.23-.16.46-.29.71-.4l.18-.08c.29-.13.7-.32,1.23-.45.56-.14,1.14-.2,1.71-.2.04,0,.07,0,.11,0,.54-.91,1.26-1.66,2.09-2.19l.11-.07c.24-.16.58-.38,1.01-.57l.17-.08c.31-.14.78-.36,1.37-.48.51-.11,1.04-.17,1.57-.17,2.35,0,4.55,1.1,5.9,2.96.16.18.3.37.42.59l.35.65.64-.36c.22-.12.45-.22.7-.29.85-.34,1.73-.51,2.63-.51,1.9,0,3.78.77,5.15,2.1.43.42.71.85.9,1.13l.11.17c.25.36.42.72.54.98l.07.15c.42.89.63,1.9.61,2.96.52.31,1,.69,1.43,1.14.38.38.63.76.81,1.04l.12.18c.16.25.29.48.39.73,1.56,2.81.8,6.65-1.74,8.79-.46.39-.96.66-1.36.89,0,0-.28.16-.32.18l.36.63c.13.22.23.46.29.71,1.04,2.65.42,5.69-1.6,7.77-.42.43-.85.71-1.13.9l-.17.11c-.37.25-.72.42-.98.54l-.15.07c-.85.4-1.79.61-2.8.61-.05,0-.1,0-.15,0-.31.52-.69,1-1.14,1.44-.38.37-.76.62-1.03.81l-.18.12c-.25.17-.48.29-.72.39-.94.52-2.09.81-3.25.81Z"/>
    </g>
    <path class="cls-3" d="M21.49,39.33c-2.13,0-4.21-.95-5.54-2.55-.39-.46-.66-.95-.88-1.34,0,0-.16-.29-.18-.33-.04.02-.32.18-.32.18-.4.22-.89.49-1.47.68-.68.22-1.41.34-2.16.34-2.58,0-5.02-1.39-6.23-3.55-.16-.23-.29-.45-.39-.7l-.09-.19c-.13-.29-.32-.7-.45-1.23-.15-.6-.21-1.21-.2-1.81-.91-.54-1.66-1.26-2.19-2.09l-.08-.12c-.16-.24-.38-.57-.56-1l-.08-.18c-.14-.3-.36-.77-.48-1.37-.62-2.87.48-5.79,2.8-7.47.18-.16.37-.3.58-.41l.64-.35s-.18-.32-.18-.32c-.22-.4-.5-.89-.68-1.48-1.02-3.13.39-6.8,3.21-8.39.23-.16.46-.29.7-.39l.18-.08c.29-.13.7-.32,1.23-.45.56-.14,1.14-.2,1.71-.2.04,0,.07,0,.11,0,.54-.91,1.26-1.66,2.09-2.19l.12-.08c.24-.16.57-.38,1-.56l.17-.08c.3-.14.78-.36,1.37-.49.51-.11,1.04-.17,1.57-.17,2.35,0,4.55,1.1,5.9,2.96.16.18.3.37.42.58l.35.65.64-.36c.22-.13.46-.22.7-.29.85-.34,1.73-.51,2.63-.51,1.9,0,3.77.77,5.15,2.1.44.42.72.85.9,1.14l.11.17c.25.36.41.72.53.98l.07.15c.42.89.63,1.9.61,2.96.52.31,1,.69,1.43,1.14.38.38.63.76.81,1.04l.12.18c.16.25.29.48.39.73,1.56,2.81.8,6.65-1.74,8.79-.46.39-.96.66-1.36.89,0,0-.28.16-.32.18l.36.63c.13.22.23.46.29.71,1.04,2.65.42,5.69-1.6,7.77-.42.43-.85.72-1.13.9l-.17.11c-.36.25-.72.42-.99.54l-.14.07c-.85.41-1.8.61-2.81.61-.05,0-.1,0-.15,0-.31.52-.69,1-1.14,1.44-.38.38-.76.63-1.04.81l-.18.12c-.24.16-.47.29-.72.39-.94.52-2.09.81-3.25.81Z"/>
    <path class="cls-3" d="M21.76,38.36c-2.13,0-4.2-.95-5.54-2.55-.39-.46-.66-.95-.88-1.35,0,0-.16-.28-.18-.32-.04.02-.32.18-.32.18-.4.22-.89.5-1.47.68-.68.22-1.41.34-2.16.34-2.58,0-5.02-1.39-6.24-3.55-.16-.23-.29-.46-.39-.69l-.09-.19c-.14-.29-.32-.71-.45-1.23-.15-.6-.21-1.21-.2-1.82-.91-.54-1.66-1.25-2.19-2.09l-.08-.12c-.16-.24-.38-.57-.56-1l-.08-.17c-.14-.31-.36-.78-.49-1.37-.62-2.87.48-5.79,2.8-7.46.18-.16.37-.3.58-.41l.64-.35s-.18-.32-.18-.32c-.22-.39-.5-.89-.68-1.47-1.02-3.13.39-6.8,3.21-8.39.23-.16.46-.29.7-.39l.19-.09c.29-.13.7-.32,1.23-.45.56-.14,1.13-.2,1.7-.2.04,0,.07,0,.11,0,.54-.91,1.25-1.66,2.09-2.19l.12-.08c.24-.16.57-.38,1-.56l.18-.08c.31-.14.78-.36,1.37-.48.51-.11,1.04-.17,1.57-.17,2.35,0,4.54,1.1,5.89,2.96.16.18.3.38.42.59l.35.65.64-.36c.21-.12.44-.21.67-.28.85-.34,1.74-.52,2.66-.52,1.9,0,3.77.77,5.15,2.1.43.42.72.85.9,1.13l.11.17c.25.36.42.72.54.98l.07.15c.42.89.63,1.9.61,2.96.52.31,1,.69,1.44,1.14.38.38.63.76.81,1.04l.12.18c.16.25.29.48.39.73,1.56,2.81.8,6.66-1.74,8.79-.46.39-.96.66-1.36.88,0,0-.28.16-.32.18l.36.63c.13.22.22.46.29.71,1.04,2.65.42,5.69-1.6,7.77-.42.43-.85.72-1.14.9l-.17.11c-.36.25-.71.41-.98.53l-.15.07c-.85.41-1.8.61-2.81.61-.05,0-.1,0-.15,0-.31.52-.69,1-1.14,1.44-.38.38-.76.63-1.04.81l-.18.12c-.24.16-.48.29-.74.39-.93.52-2.07.8-3.23.8Z"/>
    <path class="cls-2" d="M24.03,34.69c.28-.19.57-.36.82-.6.73-.72,1.16-1.63,1.28-2.74,0,0,0-.01,0-.02.01-.03.04-.03.07-.02,1.05.53,2.46.69,3.55.17.25-.12.51-.22.73-.38.29-.2.59-.36.83-.62,1.27-1.31,1.66-3.31.79-4.96,0,0,0,0,0,0,0,0,0,0,0,0s0,0,0,0c.01.02.02.03.04.04l-.37-.65s0,.05.02.07c0,0,0,0,0,0,0,0,0,0,0,0h0c-.72-1.14-1.71-1.95-2.98-2.44-.64-.25-1.24-.43-1.79-.56-.98-.23-1.96-.45-2.94-.67-.98-.22-1.93-.51-2.86-.87-.48-.19-.86-.56-1.08-1.03l.02-.02c.44-.31.99-.43,1.53-.34.7.12,1.39.28,2.07.49.98.3,2.01.64,3.09,1.03,1.95.7,4.26,1.28,6.19.18.37-.21.8-.43,1.1-.68,1.44-1.2,1.94-3.47.99-5.14-.04-.07-.07-.13-.09-.2-.02-.06-.05-.12-.09-.17-.19-.28-.36-.57-.6-.82-.72-.73-1.63-1.16-2.74-1.28,0,0-.01,0-.02,0-.03-.01-.03-.04-.02-.07.53-1.05.69-2.46.17-3.55-.12-.25-.22-.51-.38-.73-.2-.29-.36-.59-.62-.83-1.31-1.27-3.31-1.66-4.96-.79,0,0,0,0,0,0,0,0,0,0,0,0s0,0,0,0c.02-.01.03-.02.04-.04l-.65.37s.05,0,.07-.02c0,0,0,0,0,0,0,0,0,0,0,0h0c-1.14.72-1.95,1.71-2.44,2.98-.25.64-.43,1.24-.56,1.79-.23.98-.45,1.96-.67,2.94-.22.98-.51,1.93-.87,2.86-.2.5-.59.9-1.08,1.11-.3-.44-.43-.99-.33-1.51.18-.98.44-1.94.77-2.89.33-.95.66-1.9.99-2.85.18-.54.34-1.14.47-1.82.26-1.34.09-2.61-.5-3.82h0s0-.01,0,0c0,.02.02.04.05.05l-.35-.65s0,.03.01.05c0,0,0,0,0,.01,0,0,0,0,0,0,0,0,0,0,0,0-.94-1.6-2.85-2.33-4.63-1.95-.35.07-.65.24-.97.38-.25.11-.47.27-.7.42-1.02.65-1.64,1.93-1.74,3.1,0,.03-.03.05-.05.05,0,0-.01,0-.02,0-1-.48-2-.6-3-.36-.33.08-.63.24-.94.38-.06.03-.12.06-.17.1-.06.04-.12.08-.19.12-1.69.92-2.46,3.1-1.88,4.89.12.37.37.78.57,1.16,1.06,1.95,3.33,2.68,5.35,3.12,1.12.24,2.18.5,3.17.76.69.18,1.36.41,2.02.68.5.21.9.6,1.12,1.09v.02c-.42.28-.95.39-1.45.3-.98-.18-1.94-.44-2.89-.77-.95-.33-1.9-.66-2.85-.99-.54-.18-1.14-.34-1.82-.47-1.34-.26-2.61-.09-3.82.5h0s-.01,0,0,0c.02,0,.04-.02.05-.05l-.65.35s.03,0,.05-.01c0,0,0,0,.01,0,0,0,0,0,0,0,0,0,0,0,0,0-1.6.94-2.33,2.85-1.95,4.63.07.35.24.65.38.97.11.25.27.47.42.7.65,1.02,1.93,1.64,3.1,1.74.03,0,.05.03.05.05,0,0,0,.01,0,.02-.48,1-.6,2-.36,3,.08.33.24.63.38.94.03.06.06.12.1.17.04.06.08.12.12.19.92,1.69,3.1,2.46,4.89,1.88.37-.12.78-.37,1.16-.57,1.95-1.06,2.68-3.33,3.12-5.35.24-1.12.5-2.18.76-3.17.18-.69.41-1.36.68-2.02.2-.49.58-.88,1.06-1.1.29.44.41.97.32,1.5-.12.7-.28,1.39-.49,2.07-.3.98-.64,2.01-1.03,3.09-.7,1.95-1.28,4.26-.18,6.19.21.37.43.8.68,1.1,1.2,1.44,3.47,1.94,5.14.99.07-.04.13-.07.2-.09.06-.02.12-.05.17-.09Z"/>
    <g class="cls-5">
      <g>
        <path class="cls-3" d="M7.27,25.9c-1.17-.11-2.44-.72-3.09-1.74-.15-.23-.31-.46-.42-.7-.14-.32-.3-.62-.38-.97-.19-.9-.11-1.83.24-2.65-.09.55-.08,1.13.04,1.68.07.35.24.64.38.97.11.25.27.47.42.7.65,1.02,1.93,1.64,3.1,1.74.03,0,.05.03.05.06v.02c-.15.3-.26.59-.34.89Z"/>
        <path class="cls-3" d="M16.55,26.95c-.46,1.82-1.23,3.69-2.95,4.63-.37.21-.78.45-1.16.57-1.78.58-3.97-.18-4.89-1.88-.04-.07-.07-.13-.12-.19-.04-.05-.08-.11-.1-.17-.13-.31-.29-.61-.38-.94-.21-.89-.14-1.78.21-2.67-.1.57-.08,1.14.06,1.71.08.33.24.63.38.94.02.06.06.11.1.17.05.06.08.12.12.19.92,1.69,3.11,2.46,4.89,1.88.37-.12.78-.37,1.16-.57,1.42-.77,2.19-2.18,2.67-3.66Z"/>
        <path class="cls-3" d="M26.08,31.72c-.17.95-.58,1.74-1.23,2.37-.24.24-.54.41-.82.6-.05.04-.11.07-.18.09-.07.03-.13.06-.2.09-1.67.95-3.93.45-5.14-.99-.25-.3-.47-.72-.68-1.1-.97-1.7-.63-3.7-.06-5.49-.38,1.52-.47,3.12.33,4.52.21.37.43.8.68,1.1,1.2,1.44,3.47,1.94,5.14.99.07-.04.13-.07.2-.09.07-.03.12-.05.18-.09.28-.19.58-.36.82-.6.42-.4.73-.88.95-1.41Z"/>
        <path class="cls-3" d="M32.52,28.11c-.14.88-.56,1.71-1.2,2.37-.25.26-.54.42-.83.62-.22.15-.48.25-.73.37-1.09.52-2.49.37-3.54-.16.09-.29.15-.6.19-.93,0,0,0-.01,0-.02.01-.02.04-.03.07-.02,1.05.53,2.46.69,3.55.17.25-.12.51-.22.73-.37.29-.2.59-.36.83-.62.4-.41.71-.89.92-1.41Z"/>
      </g>
      <g>
        <path class="cls-4" d="M7.33,25.95v.02c-.06.11-.11.22-.15.34.02-.14.05-.27.09-.41,0,0,.01,0,.01,0,.03,0,.05.03.05.06Z"/>
        <path class="cls-4" d="M26.2,31.31s0,0,.01,0c-.04.14-.08.27-.14.4.02-.12.04-.24.05-.36,0,0,0-.01,0-.02.01-.02.04-.03.07-.02Z"/>
      </g>
    </g>
  </g>
</svg>