<?xml version="1.0" encoding="UTF-8"?>
<svg id="Layer_2" data-name="Layer 2" xmlns="http://www.w3.org/2000/svg" viewBox="0 0 27.12 28.08">
  <defs>
    <style>
      .cls-1 {
        fill: #75a631;
        stroke-width: 0px;
      }
    </style>
  </defs>
  <g id="Layer_1-2" data-name="Layer 1">
    <path class="cls-1" d="M22.28.6l1.15,3.1,3.1,1.15c.79.29.79,1.42,0,1.71l-3.1,1.15-1.15,3.1c-.29.79-1.42.79-1.71,0l-1.15-3.1-3.1-1.15c-.79-.29-.79-1.42,0-1.71l3.1-1.15,1.15-3.1c.29-.79,1.42-.79,1.71,0Z"/>
    <path class="cls-1" d="M9.52,11.35l1.95,5.27,5.27,1.95c.79.29.79,1.42,0,1.71l-5.27,1.95-1.95,5.27c-.29.79-1.42.79-1.71,0l-1.95-5.27-5.27-1.95c-.79-.29-.79-1.42,0-1.71l5.27-1.95,1.95-5.27c.29-.79,1.42-.79,1.71,0Z"/>
  </g>
</svg>