<?xml version="1.0" encoding="UTF-8"?>
<svg id="Layer_2" data-name="Layer 2" xmlns="http://www.w3.org/2000/svg" viewBox="0 0 55.37 57.3">
  <defs>
    <style>
      .cls-1 {
        fill: #75a631;
        stroke-width: 0px;
      }
    </style>
  </defs>
  <g id="Layer_1-2" data-name="Layer 1">
    <path class="cls-1" d="M49.89,36.25l1.32,3.57,3.57,1.32c.79.29.79,1.42,0,1.71l-3.57,1.32-1.32,3.57c-.29.79-1.42.79-1.71,0l-1.32-3.57-3.57-1.32c-.79-.29-.79-1.42,0-1.71l3.57-1.32,1.32-3.57c.29-.79,1.42-.79,1.71,0Z"/>
    <path class="cls-1" d="M45.68,50.2l.65,1.75,1.75.65c.79.29.79,1.42,0,1.71l-1.75.65-.65,1.75c-.29.79-1.42.79-1.71,0l-.65-1.75-1.75-.65c-.79-.29-.79-1.42,0-1.71l1.75-.65.65-1.75c.29-.79,1.42-.79,1.71,0Z"/>
    <path class="cls-1" d="M6.1.6l1.02,2.77,2.77,1.02c.79.29.79,1.42,0,1.71l-2.77,1.02-1.02,2.77c-.29.79-1.42.79-1.71,0l-1.02-2.77-2.77-1.02c-.79-.29-.79-1.42,0-1.71l2.77-1.02,1.02-2.77c.29-.79,1.42-.79,1.71,0Z"/>
  </g>
</svg>