<?xml version="1.0" encoding="UTF-8"?>
<svg id="Layer_2" data-name="Layer 2" xmlns="http://www.w3.org/2000/svg" viewBox="0 0 186.9 42.62">
  <defs>
    <style>
      .cls-1 {
        opacity: .5;
      }

      .cls-2 {
        opacity: .3;
      }

      .cls-3 {
        fill: #fbf9df;
      }

      .cls-3, .cls-4, .cls-5, .cls-6, .cls-7 {
        stroke-width: 0px;
      }

      .cls-4 {
        fill: #fcf9ba;
      }

      .cls-5 {
        fill: #2b6f36;
      }

      .cls-6 {
        fill: #75a631;
      }

      .cls-7 {
        fill: #97c933;
      }
    </style>
  </defs>
  <g id="Layer_1-2" data-name="Layer 1">
    <g>
      <path class="cls-6" d="M20.92,37.44c-4.9,0-6.14-1.23-7.09-3.98-.33-.95-.67-1.94-1.88-3.19l-.46-.48c-2.77-2.84-4.24-6.21-4.24-9.76s1.68-7.35,4.74-10.24c1.23-1.16,1.51-2.06,1.78-2.92.79-2.52,1.99-3.72,6.66-3.72h145.58c4.66,0,5.86,1.2,6.65,3.72.27.86.55,1.76,1.79,2.92,3.06,2.89,4.74,6.53,4.74,10.24s-1.47,6.92-4.24,9.76l-.46.47c-1.23,1.25-1.57,2.24-1.89,3.19-.94,2.75-2.19,3.98-7.09,3.98H20.92Z"/>
      <path class="cls-6" d="M11.84,35.06c-4.29,0-5.44-1.15-6.27-3.57-.28-.81-.54-1.57-1.52-2.57l-.39-.4c-2.39-2.45-3.66-5.37-3.66-8.44s1.45-6.37,4.09-8.86c.98-.92,1.19-1.61,1.42-2.33.8-2.54,2.23-3.36,5.91-3.36h122.72c3.67,0,5.11.82,5.9,3.36.23.72.44,1.4,1.42,2.33,2.64,2.5,4.09,5.64,4.09,8.86s-1.27,5.99-3.66,8.44l-.39.4c-.98,1-1.25,1.77-1.52,2.57-.83,2.42-1.98,3.57-6.28,3.57H11.84Z"/>
      <path class="cls-6" d="M23.45,42.62c-.11,0-.21-.01-.32-.04-.34-.08-.63-.3-.8-.6l-4.39-7.49c-.2-.35-.24-.78-.08-1.16q.37-.89,5.45-.89c4.91,0,12.42.09,12.5.09.58,0,1.09.4,1.24.96.15.56-.08,1.15-.58,1.45l-12.34,7.49c-.21.12-.44.19-.67.19Z"/>
      <path class="cls-5" d="M23.45,39.96c-.11,0-.21-.01-.32-.04-.34-.08-.63-.3-.8-.6l-4.39-7.49c-.2-.35-.24-.78-.08-1.16q.37-.89,5.45-.89c4.91,0,12.42.09,12.5.09.58,0,1.09.4,1.24.96.15.56-.08,1.15-.58,1.45l-12.34,7.49c-.21.12-.44.19-.67.19Z"/>
      <path class="cls-6" d="M53.18,35.06c-4.29,0-5.44-1.15-6.27-3.57-.28-.81-.54-1.57-1.52-2.57l-.39-.4c-2.39-2.45-3.66-5.37-3.66-8.44s1.45-6.37,4.09-8.86c.98-.92,1.19-1.61,1.42-2.33.8-2.54,2.23-3.36,5.91-3.36h122.72c3.67,0,5.11.82,5.9,3.36.23.72.44,1.4,1.42,2.33,2.64,2.5,4.09,5.64,4.09,8.86s-1.27,5.99-3.66,8.44l-.39.4c-.99,1.01-1.25,1.77-1.52,2.57-.83,2.42-1.98,3.57-6.28,3.57H53.18Z"/>
      <path class="cls-5" d="M53.18,31.91c-4.29,0-5.44-1.15-6.27-3.57-.28-.81-.54-1.57-1.52-2.57l-.39-.4c-2.39-2.45-3.66-5.37-3.66-8.44s1.45-6.37,4.09-8.86c.98-.92,1.19-1.61,1.42-2.33.8-2.54,2.23-3.36,5.91-3.36h122.72c3.67,0,5.11.82,5.9,3.36.23.72.44,1.4,1.42,2.33,2.64,2.5,4.09,5.64,4.09,8.86s-1.27,5.99-3.66,8.44l-.39.4c-.99,1.01-1.25,1.77-1.52,2.57-.83,2.42-1.98,3.57-6.28,3.57H53.18Z"/>
      <path class="cls-4" d="M184.9,16.93c0,2.46-1.03,4.93-3.09,7.05l-.39.4c-3.41,3.47-.51,5.54-6.37,5.54H53.18c-5.84,0-2.96-2.06-6.36-5.54l-.39-.4c-2.06-2.11-3.09-4.58-3.09-7.05,0-2.62,1.16-5.23,3.47-7.41,3.42-3.24.34-5.14,5.95-5.14h122.72c5.6,0,2.52,1.9,5.95,5.14,2.3,2.18,3.47,4.79,3.47,7.41Z"/>
      <path class="cls-5" d="M11.84,31.91c-4.29,0-5.44-1.15-6.27-3.57-.28-.81-.54-1.57-1.52-2.57l-.39-.4c-2.39-2.45-3.66-5.37-3.66-8.44s1.45-6.37,4.09-8.86c.98-.92,1.19-1.61,1.42-2.33.8-2.54,2.23-3.36,5.91-3.36h122.72c3.67,0,5.11.82,5.9,3.36.23.72.44,1.4,1.42,2.33,2.64,2.5,4.09,5.64,4.09,8.86s-1.27,5.99-3.66,8.44l-.39.4c-.99,1-1.25,1.77-1.52,2.57-.83,2.42-1.98,3.57-6.28,3.57H11.84Z"/>
      <path class="cls-4" d="M143.55,16.93c0,2.46-1.03,4.93-3.09,7.05l-.39.4c-3.41,3.47-.51,5.54-6.37,5.54H11.84c-5.84,0-2.96-2.06-6.36-5.54l-.39-.4c-2.06-2.11-3.09-4.58-3.09-7.05,0-2.62,1.16-5.23,3.47-7.41,3.42-3.24.34-5.14,5.95-5.14h122.72c5.6,0,2.52,1.9,5.95,5.14,2.3,2.18,3.47,4.79,3.47,7.41Z"/>
      <path class="cls-5" d="M20.92,34.29c-4.9,0-6.14-1.23-7.09-3.99-.33-.95-.67-1.94-1.88-3.19l-.46-.48c-2.77-2.84-4.24-6.21-4.24-9.76s1.68-7.35,4.74-10.24c1.23-1.16,1.51-2.06,1.78-2.92.79-2.52,1.99-3.72,6.66-3.72h145.58c4.66,0,5.86,1.2,6.65,3.72.27.86.55,1.76,1.79,2.92,3.06,2.89,4.74,6.53,4.74,10.24s-1.47,6.92-4.24,9.76l-.46.47c-1.23,1.25-1.57,2.24-1.89,3.19-.94,2.75-2.19,3.98-7.09,3.98H20.92Z"/>
      <path class="cls-3" d="M177.17,16.89c0,2.92-1.22,5.85-3.67,8.36l-.46.47c-4.04,4.12-.61,6.57-7.55,6.57H20.92c-6.93,0-3.51-2.45-7.54-6.57l-.46-.47c-2.45-2.51-3.67-5.44-3.67-8.36,0-3.1,1.38-6.2,4.11-8.79,4.06-3.84.4-6.1,7.06-6.1h145.58c6.65,0,2.99,2.25,7.06,6.1,2.73,2.59,4.11,5.69,4.11,8.79Z"/>
      <g class="cls-1">
        <path class="cls-5" d="M31.02,27.47c-1.1,0-2.21-.48-2.95-1.28l-.41-.45-.59.16c-.33.09-.68.14-1.03.14-1.42,0-2.77-.77-3.45-1.96-.09-.15-.17-.29-.22-.39-.11-.24-.21-.47-.29-.77-.02-.1-.04-.2-.06-.31l-.06-.36-.27-.24c-.26-.23-.48-.48-.66-.76-.11-.17-.25-.38-.35-.61-.11-.23-.23-.5-.3-.84-.3-1.4.15-2.86,1.18-3.81l.45-.42-.17-.59c-.48-1.7.3-3.63,1.82-4.5.15-.1.31-.18.42-.23.18-.08.43-.2.74-.27.1-.02.2-.04.31-.06l.36-.06.24-.27c.23-.26.48-.48.76-.66.19-.12.39-.25.61-.35.22-.1.49-.23.84-.3.28-.06.57-.09.86-.09,1.13,0,2.21.47,2.97,1.29l.42.45.59-.17c.33-.09.69-.14,1.05-.14,1.04,0,2.08.42,2.84,1.16.25.25.41.49.51.63.17.25.27.46.35.61.16.33.26.67.32,1.02l.06.36.27.24c.08.07.16.14.24.22.22.22.36.43.45.58l.09.14c.05.07.12.22.18.33.85,1.58.48,3.56-.84,4.76l-.46.42.17.6c.37,1.32-.03,2.83-1.03,3.86-.24.25-.49.41-.64.51-.25.17-.46.27-.62.35-.35.17-.68.27-1.03.33l-.36.06s-.31.35-.34.39h-.01s-1.1.81-1.1.81c-.02,0-.03.01-.05.02-.55.3-1.19.45-1.81.45Z"/>
      </g>
      <path class="cls-5" d="M31.34,25.98c-1.1,0-2.12-.45-2.87-1.26l-.41-.45-.59.16c-.33.09-.68.14-1.03.14-1.41,0-2.76-.77-3.44-1.96-.1-.15-.18-.3-.23-.41-.1-.21-.21-.44-.28-.75-.02-.1-.04-.2-.06-.31l-.06-.36-.27-.24c-.26-.23-.48-.48-.66-.76-.17-.26-.27-.43-.35-.61-.11-.23-.23-.5-.3-.84-.31-1.43.13-2.85,1.18-3.82l.45-.42-.17-.59c-.48-1.7.3-3.63,1.82-4.5.15-.1.29-.17.39-.22.23-.11.46-.21.76-.28.1-.03.21-.05.32-.06l.36-.06.24-.27c.23-.26.48-.48.76-.66.19-.12.39-.25.61-.35.23-.11.49-.23.84-.3.28-.06.57-.09.86-.09,1.13,0,2.21.47,2.96,1.28l.41.45.59-.16c.34-.09.69-.14,1.03-.14,1.05,0,2.1.42,2.86,1.16.25.25.41.49.51.64.17.25.27.45.35.62.15.32.26.66.31,1.01l.06.36.27.24c.08.07.16.15.24.22.22.22.37.45.46.58.12.17.2.33.27.46.85,1.55.47,3.58-.84,4.77l-.45.41.15.59c.37,1.39-.02,2.84-1.02,3.87-.24.25-.49.41-.63.51-.25.17-.45.27-.62.35-.36.17-.71.28-1.07.33l-.35.05-.24.27c-.27.3-.58.56-.93.77-.66.41-1.42.62-2.18.62Z"/>
      <path class="cls-6" d="M32.22,23.78c.13-.09.27-.17.39-.28.35-.34.55-.77.6-1.29,0,0,0,0,0,0,0-.01.02-.02.03-.01.49.25,1.16.32,1.68.08.12-.06.24-.1.34-.18.14-.09.28-.17.39-.29.6-.62.78-1.56.37-2.34,0,0,0,0,0,0,0,0,0,0,0,0s0,0,0,0c0,.01.01.02.02.02l-.17-.3s0,.02,0,.03c0,0,0,0,0,0,0,0,0,0,0,0h0c-.34-.54-.81-.92-1.41-1.15-.3-.12-.58-.2-.85-.27-.46-.11-.92-.21-1.39-.31-.46-.1-.91-.24-1.35-.41-.23-.09-.41-.27-.51-.48h.01c.21-.15.47-.21.72-.17.33.06.66.13.98.23.46.14.95.3,1.46.49.92.33,2.01.6,2.92.09.18-.1.38-.2.52-.32.68-.57.92-1.64.47-2.43-.02-.03-.03-.06-.04-.09-.01-.03-.03-.06-.04-.08-.09-.13-.17-.27-.28-.39-.34-.35-.77-.55-1.29-.6,0,0,0,0,0,0-.01,0-.02-.02-.01-.03.25-.49.32-1.16.08-1.68-.06-.12-.1-.24-.18-.34-.09-.14-.17-.28-.29-.39-.62-.6-1.56-.78-2.34-.37,0,0,0,0,0,0,0,0,0,0,0,0s0,0,0,0c.01,0,.02-.01.02-.02l-.3.17s.02,0,.03,0c0,0,0,0,0,0,0,0,0,0,0,0h0c-.54.34-.92.81-1.15,1.41-.12.3-.2.58-.27.85-.11.46-.21.92-.31,1.39-.1.46-.24.91-.41,1.35-.09.24-.28.42-.51.52-.14-.21-.2-.47-.16-.71.08-.46.21-.92.36-1.36.16-.45.31-.89.47-1.34.09-.25.16-.54.22-.86.12-.63.04-1.23-.23-1.8h0s0,0,0,0c0,.01.01.02.02.03l-.17-.31s0,.02,0,.03c0,0,0,0,0,0,0,0,0,0,0,0,0,0,0,0,0,0-.44-.76-1.34-1.1-2.18-.92-.16.03-.3.11-.46.18-.12.05-.22.13-.33.2-.48.31-.77.91-.82,1.46,0,.01-.01.02-.03.02,0,0,0,0,0,0-.47-.23-.95-.28-1.42-.17-.16.04-.3.11-.44.18-.03.01-.05.03-.08.05-.03.02-.06.04-.09.06-.8.43-1.16,1.46-.89,2.31.06.18.17.37.27.55.5.92,1.57,1.26,2.52,1.47.53.11,1.03.23,1.5.36.32.09.64.19.95.32.24.1.43.28.53.52h0c-.2.14-.45.2-.69.15-.46-.08-.92-.21-1.36-.36-.45-.16-.89-.31-1.34-.47-.25-.09-.54-.16-.86-.22-.63-.12-1.23-.04-1.8.23h0s0,0,0,0c.01,0,.02-.01.03-.02l-.31.17s.02,0,.03,0c0,0,0,0,0,0,0,0,0,0,0,0,0,0,0,0,0,0-.76.44-1.1,1.34-.92,2.18.03.16.11.3.18.46.05.12.13.22.2.33.31.48.91.77,1.46.82.01,0,.02.01.02.03,0,0,0,0,0,0-.23.47-.28.95-.17,1.42.04.16.11.3.18.44.01.03.03.05.05.08.02.03.04.06.06.09.43.8,1.46,1.16,2.31.89.18-.06.37-.17.55-.27.92-.5,1.26-1.57,1.47-2.52.11-.53.23-1.03.36-1.5.09-.32.19-.64.32-.95.09-.23.27-.42.5-.52.14.21.19.46.15.71-.06.33-.13.66-.23.98-.14.46-.3.95-.49,1.46-.33.92-.6,2.01-.09,2.92.1.18.2.38.32.52.57.68,1.64.92,2.43.47.03-.02.06-.03.09-.04.03-.01.06-.03.08-.04Z"/>
      <g class="cls-2">
        <g>
          <path class="cls-5" d="M24.31,19.63c-.55-.05-1.15-.34-1.46-.82-.07-.11-.15-.22-.2-.33-.06-.15-.14-.29-.18-.46-.09-.42-.05-.86.11-1.25-.04.26-.04.53.02.8.03.16.11.3.18.46.05.12.13.22.2.33.31.48.91.77,1.46.82.01,0,.02.01.02.03h0c-.07.15-.12.29-.16.43Z"/>
          <path class="cls-5" d="M28.69,20.12c-.22.86-.58,1.74-1.39,2.18-.18.1-.37.21-.55.27-.84.28-1.87-.09-2.31-.89-.02-.03-.04-.06-.06-.09-.02-.03-.04-.05-.05-.08-.06-.15-.14-.29-.18-.44-.1-.42-.07-.84.1-1.26-.05.27-.04.54.03.8.04.16.12.3.18.44.01.03.03.05.05.08.02.03.04.06.06.09.43.8,1.47,1.16,2.31.89.18-.06.37-.17.55-.27.67-.36,1.03-1.03,1.26-1.73Z"/>
          <path class="cls-5" d="M33.18,22.37c-.08.45-.27.82-.58,1.12-.11.11-.25.19-.39.28-.02.02-.05.03-.08.04-.03.01-.06.03-.09.04-.79.45-1.86.21-2.42-.47-.12-.14-.22-.34-.32-.52-.46-.8-.3-1.75-.03-2.59-.18.72-.22,1.47.16,2.13.1.18.2.38.32.52.57.68,1.64.92,2.42.47.03-.02.06-.03.09-.04.03-.01.06-.03.08-.04.13-.09.27-.17.39-.28.2-.19.35-.41.45-.67Z"/>
          <path class="cls-5" d="M36.22,20.67c-.07.41-.26.81-.56,1.12-.12.12-.26.2-.39.29-.1.07-.23.12-.34.18-.51.24-1.18.17-1.67-.08.04-.14.07-.28.09-.44,0,0,0,0,0,0,0-.01.02-.02.03-.01.5.25,1.16.32,1.68.08.12-.06.24-.11.34-.18.14-.09.28-.17.39-.29.19-.19.33-.42.43-.66Z"/>
        </g>
        <g>
          <path class="cls-7" d="M24.34,19.65h0c-.03.06-.05.11-.07.17.01-.06.03-.13.04-.19,0,0,0,0,0,0,.01,0,.02.01.02.03Z"/>
          <path class="cls-7" d="M33.24,22.18s0,0,0,0c-.02.07-.04.13-.07.19,0-.06.02-.11.02-.17,0,0,0,0,0,0,0-.01.02-.02.03-.01Z"/>
        </g>
      </g>
      <path class="cls-3" d="M19.05,31.17l4.39,7.49,12.34-7.49s-16.93-.2-16.73,0Z"/>
    </g>
  </g>
</svg>